<svg xmlns="http://www.w3.org/2000/svg" viewBox="0 0 256 256" role="img" aria-label="云盘自动转存">
  <defs>
    <linearGradient id="shell" x1="42" y1="26" x2="218" y2="232" gradientUnits="userSpaceOnUse">
      <stop offset="0" stop-color="#ffffff"/>
      <stop offset="0.46" stop-color="#eaf5ff"/>
      <stop offset="1" stop-color="#b8d7ff"/>
    </linearGradient>
    <radialGradient id="aura-blue" cx="28%" cy="20%" r="72%">
      <stop offset="0" stop-color="#7fd9ff" stop-opacity="0.92"/>
      <stop offset="0.52" stop-color="#0a84ff" stop-opacity="0.5"/>
      <stop offset="1" stop-color="#0a84ff" stop-opacity="0"/>
    </radialGradient>
    <radialGradient id="aura-violet" cx="82%" cy="16%" r="68%">
      <stop offset="0" stop-color="#c7b7ff" stop-opacity="0.8"/>
      <stop offset="0.58" stop-color="#8e8dff" stop-opacity="0.26"/>
      <stop offset="1" stop-color="#8e8dff" stop-opacity="0"/>
    </radialGradient>
    <linearGradient id="glass" x1="68" y1="42" x2="184" y2="208" gradientUnits="userSpaceOnUse">
      <stop offset="0" stop-color="#ffffff" stop-opacity="0.96"/>
      <stop offset="0.62" stop-color="#ffffff" stop-opacity="0.64"/>
      <stop offset="1" stop-color="#d4ecff" stop-opacity="0.48"/>
    </linearGradient>
    <linearGradient id="action" x1="93" y1="78" x2="178" y2="186" gradientUnits="userSpaceOnUse">
      <stop offset="0" stop-color="#68d8ff"/>
      <stop offset="0.46" stop-color="#0a84ff"/>
      <stop offset="1" stop-color="#0067d8"/>
    </linearGradient>
    <filter id="soft-shadow" x="-20%" y="-20%" width="140%" height="150%">
      <feDropShadow dx="0" dy="18" stdDeviation="16" flood-color="#1d3557" flood-opacity="0.18"/>
    </filter>
  </defs>

  <rect width="256" height="256" rx="58" fill="url(#shell)"/>
  <rect width="256" height="256" rx="58" fill="url(#aura-blue)"/>
  <rect width="256" height="256" rx="58" fill="url(#aura-violet)"/>
  <path fill="#ffffff" fill-opacity="0.48" d="M36 64c27-27 86-43 139-25 31 10 48 33 53 58 5 24-3 49-22 72-25 31-70 49-113 43-37-6-65-29-77-60C4 119 12 88 36 64z"/>
  <path fill="none" stroke="#ffffff" stroke-opacity="0.48" stroke-width="2" d="M64 30h82c39 0 72 28 80 65"/>

  <g filter="url(#soft-shadow)">
    <path fill="url(#glass)" stroke="#ffffff" stroke-opacity="0.78" stroke-width="2.5" d="M87 89c10-22 32-36 57-36 29 0 52 18 61 45 22 5 38 24 38 47 0 27-22 49-49 49H68c-30 0-54-24-54-54 0-27 20-49 47-53 8-1 16 0 26 2z"/>
    <path fill="#ffffff" fill-opacity="0.26" d="M48 129c18-23 49-32 87-28 36 4 67-1 90-17 9 10 15 23 16 38-26 19-61 26-102 19-37-6-68 0-92 18-2-10-2-20 1-30z"/>
  </g>

  <path fill="url(#action)" d="M82 158h45v-28H99l47-47 47 47h-28v28h45l-19 38H101z"/>
  <path fill="#ffffff" fill-opacity="0.34" d="M111 175h69l9-17h-25v-28h29l-47-47-47 47h28v28H82l9 17z"/>
  <path fill="#005ecb" fill-opacity="0.22" d="M101 196h90l19-38h-21l-9 17h-69z"/>
</svg>
